<svg xmlns="http://www.w3.org/2000/svg" width="30" height="30" viewBox="0 0 30 30"><g transform="translate(.017)"><rect width="30" height="30" rx="15" transform="translate(-.017)" fill="#fb9426"/><path d="M14.983 11.818A3.182 3.182 0 1 0 18.165 15a3.183 3.183 0 0 0-3.182-3.182Zm-6.364 3.818h1.273a.636.636 0 0 0 0-1.273H8.619a.636.636 0 1 0 0 1.273Zm11.455 0h1.273a.636.636 0 1 0 0-1.273h-1.273a.636.636 0 0 0 0 1.273Zm-5.727-7v1.273a.636.636 0 0 0 1.273 0V8.636a.636.636 0 1 0-1.273 0Zm0 11.455v1.273a.636.636 0 1 0 1.273 0v-1.273a.636.636 0 0 0-1.273 0Zm-3.189-9.813a.636.636 0 0 0-.9.9l.675.675a.636.636 0 1 0 .9-.9Zm7.872 7.872a.636.636 0 1 0-.9.9l.675.675a.636.636 0 0 0 .9-.9Zm.675-6.975a.636.636 0 0 0-.9-.9l-.675.675a.636.636 0 1 0 .9.9Zm-7.872 7.872a.636.636 0 1 0-.9-.9l-.675.675a.636.636 0 0 0 .9.9Z" fill="#fff"/></g></svg>